<svg width="12" height="27" viewBox="0 0 12 27" fill="none" xmlns="http://www.w3.org/2000/svg">
<path d="M6.75 1C6.75 0.585786 6.41421 0.25 6 0.25C5.58579 0.25 5.25 0.585786 5.25 1L6.75 1ZM5.46967 26.5303C5.76256 26.8232 6.23744 26.8232 6.53033 26.5303L11.3033 21.7574C11.5962 21.4645 11.5962 20.9896 11.3033 20.6967C11.0104 20.4038 10.5355 20.4038 10.2426 20.6967L6 24.9393L1.75736 20.6967C1.46447 20.4038 0.989593 20.4038 0.6967 20.6967C0.403807 20.9896 0.403807 21.4645 0.6967 21.7574L5.46967 26.5303ZM5.25 1L5.25 26L6.75 26L6.75 1L5.25 1Z" fill="#14152A"/>
</svg>
