<svg width="50" height="96" viewBox="0 0 50 96" fill="none" xmlns="http://www.w3.org/2000/svg">
<rect width="50" height="96" rx="25" fill="#EFF0F5"/>
<path d="M24.5302 24C19.8266 24 16 27.8266 16 32.5302V44.4698C16 49.1734 19.8266 53 24.5302 53C29.2338 53 33.0603 49.1734 33.0603 44.4698V32.5302C33.0603 27.8266 29.2338 24 24.5302 24ZM31.3204 44.4698C31.3204 48.2139 28.2742 51.2601 24.5302 51.2601C20.7861 51.2601 17.7399 48.2139 17.7399 44.4698V32.5302C17.7399 28.7861 20.7861 25.7399 24.5302 25.7399C28.2742 25.7399 31.3204 28.7861 31.3204 32.5302V44.4698Z" fill="black"/>
<path d="M24.5304 29.7689C24.0498 29.7689 23.6604 30.1583 23.6604 30.6389V34.6431C23.6604 35.1235 24.0498 35.5131 24.5304 35.5131C25.0107 35.5131 25.4004 35.1235 25.4004 34.6431V30.6389C25.4004 30.1583 25.0109 29.7689 24.5304 29.7689Z" fill="black"/>
<path d="M25.75 59C25.75 58.5858 25.4142 58.25 25 58.25C24.5858 58.25 24.25 58.5858 24.25 59L25.75 59ZM24.4697 73.5303C24.7626 73.8232 25.2374 73.8232 25.5303 73.5303L30.3033 68.7574C30.5962 68.4645 30.5962 67.9896 30.3033 67.6967C30.0104 67.4038 29.5355 67.4038 29.2426 67.6967L25 71.9393L20.7574 67.6967C20.4645 67.4038 19.9896 67.4038 19.6967 67.6967C19.4038 67.9896 19.4038 68.4645 19.6967 68.7574L24.4697 73.5303ZM24.25 59L24.25 73L25.75 73L25.75 59L24.25 59Z" fill="black"/>
</svg>
