<svg width="28" height="28" viewBox="0 0 28 28" fill="none" xmlns="http://www.w3.org/2000/svg">
<g clip-path="url(#clip0_7_7707)">
<rect x="0.0710449" y="0.109253" width="27.7815" height="27.7815" rx="13.8907" fill="#14152A"/>
<rect x="0.0710449" y="27.8905" width="27.7815" height="27.7815" fill="url(#paint0_linear_7_7707)"/>
<path d="M14.2287 7.68864C11.4627 7.68864 8.83611 7.44278 7.83286 10.0155C7.41845 11.0781 7.47863 12.4581 7.47863 14.4341C7.47863 16.1681 7.42303 17.7977 7.83286 18.852C8.83383 21.4262 11.4817 21.1796 14.2272 21.1796C16.8759 21.1796 19.6068 21.4552 20.6223 18.852C21.0374 17.7787 20.9765 16.4193 20.9765 14.4341C20.9765 11.799 21.122 10.0977 19.843 8.8205C18.5479 7.52651 16.7966 7.68864 14.2257 7.68864H14.2287ZM13.6239 8.90423C19.3935 8.89509 20.1279 8.25419 19.7226 17.1576C19.5786 20.3065 17.179 19.961 14.2295 19.961C8.85135 19.961 8.69671 19.8072 8.69671 14.4311C8.69671 8.99252 9.1233 8.90727 13.6239 8.9027V8.90423ZM17.8319 10.0239C17.3847 10.0239 17.0221 10.3862 17.0221 10.833C17.0221 11.2798 17.3847 11.6422 17.8319 11.6422C18.279 11.6422 18.6416 11.2798 18.6416 10.833C18.6416 10.3862 18.279 10.0239 17.8319 10.0239ZM14.2287 10.97C12.3144 10.97 10.7626 12.5213 10.7626 14.4341C10.7626 16.3469 12.3144 17.8974 14.2287 17.8974C16.143 17.8974 17.694 16.3469 17.694 14.4341C17.694 12.5213 16.143 10.97 14.2287 10.97ZM14.2287 12.1856C17.2034 12.1856 17.2072 16.6826 14.2287 16.6826C11.2547 16.6826 11.2502 12.1856 14.2287 12.1856Z" fill="#F0F0F0"/>
</g>
<defs>
<linearGradient id="paint0_linear_7_7707" x1="1.93634" y1="53.862" x2="27.6777" y2="31.5787" gradientUnits="userSpaceOnUse">
<stop stop-color="#FFDB49"/>
<stop offset="0.53125" stop-color="#FF442C"/>
<stop offset="1" stop-color="#E724C0"/>
</linearGradient>
<clipPath id="clip0_7_7707">
<rect x="0.0710449" y="0.109253" width="27.7815" height="27.7815" rx="13.8907" fill="white"/>
</clipPath>
</defs>
</svg>
