<svg width="29" height="28" viewBox="0 0 29 28" fill="none" xmlns="http://www.w3.org/2000/svg">
<rect x="0.923584" y="0.109253" width="27.7815" height="27.7815" rx="13.8907" fill="#14152A"/>
<path fill-rule="evenodd" clip-rule="evenodd" d="M19.7495 18.7413C20.1765 16.5767 21.0158 11.8871 21.2096 9.95451C21.2591 9.46531 21.1125 8.98999 20.5052 9.00016C20.0204 9.00828 19.2767 9.25372 15.697 10.6654C14.4433 11.16 11.938 12.1831 8.18053 13.7356C7.57031 13.9657 7.2506 14.1906 7.2219 14.4107C7.17268 14.7828 7.66429 14.9294 8.33359 15.129C8.42427 15.156 8.51822 15.184 8.61453 15.2137C9.27258 15.4166 10.1577 15.6539 10.6179 15.6634C11.0358 15.6715 11.5015 15.5088 12.0161 15.1736C15.5263 12.9264 17.3389 11.7906 17.4526 11.7663C17.5327 11.7491 17.644 11.7272 17.7195 11.7906C17.795 11.8541 17.7875 11.9745 17.7794 12.0069C17.7307 12.2032 15.8076 13.8988 14.8086 14.7795C14.4955 15.0556 14.2731 15.2516 14.2278 15.2963C14.1267 15.3959 14.0237 15.4901 13.9246 15.5807C13.3135 16.1393 12.8552 16.5583 13.9504 17.2427C14.4775 17.572 14.8991 17.8442 15.3199 18.1159C15.7782 18.4117 16.2355 18.707 16.8268 19.0746C16.9779 19.1684 17.1221 19.266 17.2626 19.361C17.7965 19.722 18.2761 20.0463 18.8684 19.9945C19.2128 19.9645 19.5688 19.6575 19.7495 18.7413Z" fill="white"/>
</svg>
