<svg width="28" height="29" viewBox="0 0 28 29" fill="none" xmlns="http://www.w3.org/2000/svg">
<rect y="0.578125" width="28" height="28" rx="14" fill="#14152A"/>
<path fill-rule="evenodd" clip-rule="evenodd" d="M17.7681 16.1337C17.5744 16.0264 16.6208 15.5139 16.4421 15.4424C16.2633 15.3708 16.1321 15.3321 15.9951 15.5258C15.858 15.7165 15.4617 16.1486 15.3425 16.2767C15.2233 16.4049 15.107 16.4168 14.9133 16.3095C14.7197 16.2022 14.0909 15.9698 13.3638 15.2695C12.7976 14.7242 12.4251 14.0627 12.3178 13.86C12.2106 13.6574 12.3178 13.5561 12.4191 13.4607C12.5115 13.3743 12.6248 13.2372 12.7291 13.127C12.8304 13.0167 12.8661 12.9333 12.9377 12.8051C13.0092 12.677 12.9794 12.5608 12.9347 12.4594C12.89 12.3581 12.5294 11.3718 12.3804 10.9725C12.2314 10.5702 12.0645 10.6298 11.9483 10.6268C11.8321 10.6238 11.701 10.6 11.5699 10.597C11.4388 10.591 11.2212 10.6328 11.0335 10.8235C10.8457 11.0142 10.3153 11.4731 10.2796 12.4445C10.2438 13.416 10.9143 14.3815 11.0096 14.5156C11.102 14.6527 12.294 16.7565 14.2697 17.6237C16.2484 18.4908 16.2573 18.2256 16.6208 18.2077C16.9844 18.1899 17.8069 17.7727 17.9886 17.3197C18.1704 16.8638 18.1853 16.4704 18.1376 16.387C18.09 16.3036 17.9618 16.2469 17.7681 16.1426V16.1337ZM14.1415 20.8152C12.8334 20.8152 11.6175 20.4218 10.5984 19.7513L8.12507 20.544L8.92965 18.1541C8.15785 17.0932 7.7049 15.788 7.7049 14.3785C7.7049 10.8264 10.5925 7.9389 14.1415 7.9389C17.6906 7.9389 20.5812 10.8264 20.5812 14.3785C20.5812 17.9306 17.6936 20.8181 14.1415 20.8181V20.8152ZM14.1415 6.64263C9.87131 6.64263 6.40863 10.1053 6.40863 14.3755C6.40863 15.8357 6.8139 17.2035 7.52015 18.3686L6.12256 22.5167L10.4047 21.1459C11.5132 21.7598 12.7857 22.1085 14.1415 22.1085C18.4148 22.1085 21.8774 18.6458 21.8774 14.3726C21.8774 10.0993 18.4148 6.63965 14.1415 6.63965V6.64263Z" fill="white"/>
</svg>
