<svg width="29" height="28" viewBox="0 0 29 28" fill="none" xmlns="http://www.w3.org/2000/svg">
<g clip-path="url(#clip0_42_1376)">
<rect x="0.0710449" width="28" height="28" rx="14" fill="white"/>
<path d="M14.0712 8.00675C11.204 8.00675 8.48135 7.7519 7.44139 10.4188C7.01182 11.5202 7.07421 12.9507 7.07421 14.999C7.07421 16.7964 7.01656 18.4857 7.44139 19.5785C8.47898 22.2469 11.2238 21.9913 14.0696 21.9913C16.8152 21.9913 19.6461 22.2769 20.6987 19.5785C21.129 18.466 21.0659 17.0568 21.0659 14.999C21.0659 12.2674 21.2167 10.504 19.8909 9.18002C18.5485 7.83869 16.7331 8.00675 14.0681 8.00675H14.0712ZM13.4442 9.26681C19.425 9.25734 20.1862 8.59299 19.7661 17.8221C19.6169 21.0863 17.1295 20.7281 14.072 20.7281C8.49714 20.7281 8.33684 20.5687 8.33684 14.9959C8.33684 9.35833 8.77904 9.26996 13.4442 9.26523V9.26681ZM17.8062 10.4275C17.3427 10.4275 16.9668 10.803 16.9668 11.2662C16.9668 11.7293 17.3427 12.1049 17.8062 12.1049C18.2697 12.1049 18.6456 11.7293 18.6456 11.2662C18.6456 10.803 18.2697 10.4275 17.8062 10.4275ZM14.0712 11.4082C12.0868 11.4082 10.4783 13.0162 10.4783 14.999C10.4783 16.9818 12.0868 18.589 14.0712 18.589C16.0556 18.589 17.6633 16.9818 17.6633 14.999C17.6633 13.0162 16.0556 11.4082 14.0712 11.4082ZM14.0712 12.6683C17.1548 12.6683 17.1587 17.3298 14.0712 17.3298C10.9885 17.3298 10.9837 12.6683 14.0712 12.6683Z" fill="#14152A"/>
</g>
<defs>
<clipPath id="clip0_42_1376">
<rect x="0.0710449" width="28" height="28" rx="14" fill="white"/>
</clipPath>
</defs>
</svg>
