<svg width="29" height="28" viewBox="0 0 29 28" fill="none" xmlns="http://www.w3.org/2000/svg">
<rect x="0.14209" width="28" height="28" rx="14" fill="white"/>
<path fill-rule="evenodd" clip-rule="evenodd" d="M18.6731 18.7413C19.1001 16.5767 19.9394 11.8871 20.1332 9.95451C20.1827 9.46531 20.0361 8.98999 19.4288 9.00016C18.944 9.00828 18.2003 9.25372 14.6206 10.6654C13.3669 11.16 10.8616 12.1831 7.10411 13.7356C6.49389 13.9657 6.17418 14.1906 6.14548 14.4107C6.09627 14.7828 6.58788 14.9294 7.25717 15.129C7.34786 15.156 7.44181 15.184 7.53811 15.2137C8.19617 15.4166 9.08128 15.6539 9.54147 15.6634C9.95936 15.6715 10.4251 15.5088 10.9396 15.1736C14.4499 12.9264 16.2624 11.7906 16.3762 11.7663C16.4563 11.7491 16.5676 11.7272 16.6431 11.7906C16.7186 11.8541 16.711 11.9745 16.703 12.0069C16.6543 12.2032 14.7312 13.8988 13.7322 14.7795C13.4191 15.0556 13.1967 15.2516 13.1514 15.2963C13.0503 15.3959 12.9472 15.4901 12.8482 15.5807C12.237 16.1393 11.7787 16.5583 12.874 17.2427C13.4011 17.572 13.8227 17.8442 14.2435 18.1159C14.7018 18.4117 15.159 18.707 15.7504 19.0746C15.9014 19.1684 16.0457 19.266 16.1862 19.361C16.7201 19.722 17.1997 20.0463 17.792 19.9945C18.1364 19.9645 18.4924 19.6575 18.6731 18.7413Z" fill="#14152A"/>
</svg>
