<svg width="28" height="28" viewBox="0 0 28 28" fill="none" xmlns="http://www.w3.org/2000/svg">
<circle cx="14" cy="14" r="14" fill="white"/>
<path fill-rule="evenodd" clip-rule="evenodd" d="M17.6456 15.4941C17.4519 15.3868 16.4983 14.8742 16.3195 14.8027C16.1407 14.7312 16.0096 14.6925 15.8725 14.8861C15.7354 15.0769 15.3391 15.509 15.2199 15.6371C15.1007 15.7652 14.9845 15.7771 14.7908 15.6699C14.5971 15.5626 13.9683 15.3302 13.2412 14.6299C12.675 14.0845 12.3025 13.423 12.1953 13.2204C12.088 13.0177 12.1953 12.9164 12.2966 12.8211C12.389 12.7346 12.5022 12.5976 12.6065 12.4873C12.7078 12.377 12.7436 12.2936 12.8151 12.1655C12.8866 12.0373 12.8568 11.9211 12.8121 11.8198C12.7674 11.7185 12.4068 10.7321 12.2579 10.3328C12.1089 9.93053 11.942 9.99012 11.8258 9.98714C11.7095 9.98416 11.5784 9.96032 11.4473 9.95734C11.3162 9.95138 11.0987 9.9931 10.9109 10.1838C10.7232 10.3745 10.1928 10.8334 10.157 11.8049C10.1212 12.7764 10.7917 13.7419 10.8871 13.876C10.9795 14.013 12.1714 16.1169 14.1471 16.984C16.1258 17.8512 16.1347 17.586 16.4983 17.5681C16.8618 17.5502 17.6843 17.133 17.8661 16.6801C18.0479 16.2241 18.0628 15.8308 18.0151 15.7473C17.9674 15.6639 17.8393 15.6073 17.6456 15.503V15.4941ZM14.019 20.1755C12.7108 20.1755 11.495 19.7822 10.4759 19.1117L8.00251 19.9043L8.80709 17.5144C8.03529 16.4536 7.58234 15.1484 7.58234 13.7389C7.58234 10.1868 10.4699 7.29925 14.019 7.29925C17.5681 7.29925 20.4586 10.1868 20.4586 13.7389C20.4586 17.2909 17.5711 20.1785 14.019 20.1785V20.1755ZM14.019 6.00298C9.74875 6.00298 6.28607 9.46566 6.28607 13.7359C6.28607 15.1961 6.69134 16.5638 7.39759 17.729L6 21.8771L10.2822 20.5063C11.3907 21.1202 12.6631 21.4688 14.019 21.4688C18.2922 21.4688 21.7549 18.0061 21.7549 13.7329C21.7549 9.4597 18.2922 6 14.019 6V6.00298Z" fill="#14152A"/>
</svg>
